<svg
	width="512"
	height="512"
	viewBox="0 0 512 512"
	fill="none"
	xmlns="http://www.w3.org/2000/svg"
>
	<path
		d="M188 84H324C381.438 84 428 130.562 428 188V324C428 381.438 381.438 428 324 428H188C130.562 428 84 381.438 84 324V188C84 130.562 130.562 84 188 84Z"
		fill="black"
	/>
	<path
		d="M256 132C324.483 132 380 187.517 380 256C380 324.483 324.483 380 256 380C187.517 380 132 324.483 132 256C132 187.517 187.517 132 256 132ZM256 166C206.294 166 166 206.294 166 256C166 305.706 206.294 346 256 346C305.706 346 346 305.706 346 256C346 206.294 305.706 166 256 166Z"
		fill="black"
	/>
	<g fill="black">
		<circle cx="256" cy="138" r="16" />
		<circle cx="374" cy="256" r="16" />
		<circle cx="256" cy="374" r="16" />
		<circle cx="138" cy="256" r="16" />
		<rect x="242" y="158" width="28" height="70" rx="14" />
		<rect x="242" y="284" width="28" height="70" rx="14" />
		<rect x="158" y="242" width="70" height="28" rx="14" />
		<rect x="284" y="242" width="70" height="28" rx="14" />
		<path d="M204 168H284L332 216V312C332 331.882 315.882 348 296 348H204C184.118 348 168 331.882 168 312V204C168 184.118 184.118 168 204 168Z" />
	</g>
</svg>
